<svg width="539" height="248" xmlns="http://www.w3.org/2000/svg">

 <g fill-rule="evenodd" id="imagebot_2">
  <path transform="matrix(-1 0 0 1 549.073 0)" fill-rule="evenodd" fill="#d9bb7a" d="M 412.994 139.623 C 412.796 139.808 412.597 139.994 412.397 140.177 C 412.197 140.362 411.996 140.545 411.794 140.727 C 411.593 140.91 411.39 141.092 411.186 141.273 C 410.982 141.454 410.778 141.634 410.572 141.814 C 410.366 141.993 410.16 142.172 409.952 142.35 C 409.745 142.528 409.536 142.705 409.327 142.882 C 409.118 143.058 408.907 143.234 408.696 143.409 C 408.485 143.584 408.273 143.758 408.06 143.931 C 407.846 144.104 407.633 144.277 407.418 144.449 C 407.203 144.62 406.987 144.791 406.77 144.962 C 406.554 145.132 406.336 145.301 406.118 145.47 C 405.899 145.639 405.68 145.806 405.46 145.973 C 405.239 146.14 405.018 146.306 404.796 146.472 C 404.574 146.637 404.351 146.802 404.127 146.966 C 403.903 147.13 403.679 147.293 403.453 147.455 C 403.228 147.617 403.001 147.778 402.774 147.939 C 402.547 148.099 402.319 148.259 402.09 148.418 C 401.861 148.576 401.631 148.735 401.4 148.892 C 401.169 149.049 400.938 149.206 400.705 149.361 C 400.473 149.517 400.24 149.671 400.006 149.825 C 399.772 149.979 399.537 150.132 399.301 150.284 C 399.065 150.436 398.829 150.588 398.591 150.738 C 398.354 150.888 398.115 151.038 397.876 151.187 C 397.637 151.336 397.398 151.483 397.157 151.631 C 396.916 151.778 396.675 151.924 396.432 152.069 C 396.19 152.214 395.947 152.359 395.703 152.502 C 395.459 152.646 395.214 152.788 394.969 152.93 C 394.723 153.072 394.477 153.213 394.23 153.353 C 393.983 153.493 393.735 153.632 393.486 153.771 C 393.238 153.909 392.988 154.046 392.738 154.183 C 392.488 154.319 392.237 154.455 391.985 154.589 C 391.734 154.724 391.481 154.857 391.228 154.991 C 378.626 145.659 369.149 133.158 363.382 118.267 C 362.188 115.08 361.195 111.867 360.402 108.637 C 356.51 92.7806 357.436 76.5146 363.098 60.9527 C 364.098 58.4778 365.18 56.0787 366.341 53.7572 C 374.769 36.9103 387.363 24.1562 402.802 16.2413 C 407.402 13.8831 412.253 11.9543 417.323 10.4748 C 429.028 7.2647 440.586 6.29 451.643 7.4004 C 463.208 8.562 474.226 12.0048 484.296 17.5575 C 487.854 19.555 491.234 21.7126 494.432 24.0163 C 506.468 32.6869 515.925 43.4304 522.54 55.5303 C 523.672 57.6002 524.72 59.7097 525.684 61.8553 C 530.267 72.1133 533.203 82.4964 534.604 92.7406 C 535.632 100.255 535.835 107.694 535.256 114.955 C 534.867 119.622 534.246 124.202 533.406 128.685 C 531.262 140.123 527.693 150.928 522.903 160.924 C 518.113 170.92 512.102 180.108 505.076 188.31 C 504.405 189.093 503.724 189.868 503.034 190.633 C 496.585 197.788 489.671 204.177 482.418 209.815 C 474.4 216.049 465.965 221.365 457.282 225.787 C 452.216 228.367 447.065 230.642 441.863 232.617 C 438.171 234.029 434.481 235.321 430.797 236.501 C 421.954 239.334 413.151 241.52 404.454 243.156 C 395.758 244.792 387.167 245.878 378.75 246.515 C 378.244 246.555 377.738 246.59 377.233 246.625 C 369.384 247.203 361.693 247.503 354.165 247.609 C 346.155 247.722 338.328 247.612 330.687 247.386 C 326.413 247.259 322.196 247.094 318.038 246.909 C 314.775 246.773 311.512 246.629 308.249 246.478 C 300.845 246.136 293.443 245.756 286.045 245.339 C 278.647 244.921 271.252 244.466 263.86 243.973 C 256.469 243.48 249.081 242.95 241.697 242.382 C 234.314 241.813 226.934 241.208 219.559 240.565 C 212.184 239.922 204.813 239.241 197.447 238.523 S 182.72 237.05 175.364 236.257 C 168.008 235.464 160.657 234.634 153.312 233.767 C 145.967 232.9 138.627 231.995 131.293 231.053 C 123.959 230.111 116.631 229.132 109.309 228.116 C 101.987 227.1 94.6718 226.046 87.3628 224.956 C 80.0538 223.865 72.7518 222.738 65.4568 221.573 C 58.1618 220.408 50.8738 219.207 43.5928 217.968 C 36.3118 216.73 29.0388 215.454 21.773 214.142 C 14.5073 212.829 7.249 211.48 0 210.094 C 7.3389 211.235 14.683 212.338 22.033 213.404 C 29.3828 214.469 36.7378 215.497 44.0978 216.487 C 51.4578 217.477 58.8228 218.429 66.1918 219.343 C 73.5608 220.258 80.9348 221.134 88.3128 221.973 C 95.6908 222.812 103.073 223.613 110.458 224.376 C 117.844 225.139 125.233 225.864 132.626 226.551 C 140.019 227.238 147.415 227.888 154.814 228.499 S 169.615 229.684 177.019 230.22 C 184.424 230.755 191.831 231.253 199.24 231.712 C 206.649 232.172 214.061 232.594 221.474 232.977 C 228.887 233.361 236.302 233.707 243.719 234.014 C 251.136 234.322 258.553 234.591 265.972 234.823 C 273.391 235.054 280.811 235.248 288.231 235.403 C 295.652 235.559 303.073 235.676 310.494 235.755 C 248.939 220.706 188.634 203.035 129.784 182.915 C 191.366 200.981 254.274 216.363 318.264 228.903 C 330.503 231.317 343.074 233.584 356.176 235.218 C 362.676 234.883 369.253 234.393 375.901 233.69 C 377.291 233.548 378.683 233.393 380.078 233.227 C 388.174 232.258 396.358 230.869 404.553 228.968 C 412.749 227.067 420.955 224.652 429.095 221.633 C 410.154 224.776 392 224.673 374.773 222.813 C 355.131 220.721 336.647 216.694 318.463 212.392 C 235.745 192.848 155.243 168.516 77.4628 139.817 C 155.505 166.422 236.033 188.628 318.533 206.057 C 336.658 209.885 354.89 213.457 373.97 215.127 C 392.902 216.799 412.728 216.386 433.14 211.81 C 447.386 208.63 461.704 203.145 475.26 194.81 C 480.54 190.252 485.538 185.249 490.179 179.799 C 491.663 178.057 493.094 176.267 494.47 174.433 C 500.192 166.808 504.968 158.408 508.611 149.433 C 501.088 159.315 492.201 167.337 482.716 173.509 L 482.716 173.509 C 463.906 185.703 443.783 190.901 424.807 191.94 C 413.797 192.542 403.138 191.757 392.763 190.1 C 402.925 190.726 413.204 190.518 423.586 189.029 C 441.469 186.46 459.818 180.127 476.14 167.968 C 492.504 155.759 506.24 137.462 512.201 113.859 C 514.041 106.494 514.942 98.6396 514.661 90.4626 C 513.205 83.7234 510.949 77.0282 507.85 70.5152 C 506.218 67.0951 504.322 63.7977 502.177 60.651 C 495.907 51.453 487.504 43.542 477.313 37.6139 C 488.541 49.839 493.711 63.922 494.547 76.972 C 495.397 90.7886 491.716 102.915 486.075 112.614 C 481.714 120.123 476.147 126.183 470.028 130.913 C 474.856 125.694 478.998 119.524 481.936 112.417 C 485.744 103.241 487.714 92.4846 486.002 81.1189 C 484.281 69.741 478.713 57.8729 468.269 48.497 C 457.709 39.103 442.569 33.221 424.989 34.8779 C 418.896 35.5364 412.833 37.1599 407.044 39.7909 C 397.22 46.7173 389.49 56.6108 384.891 68.7328 C 384.611 69.5342 384.348 70.3387 384.104 71.1458 C 384.756 70.4642 385.421 69.8033 386.097 69.1637 C 402.196 54.4657 421.495 54.3267 433.162 60.9189 C 440.574 65.0607 445.164 71.7299 446.861 78.4639 C 444.586 74.5169 440.738 70.8952 435.714 69.0499 C 427.906 65.9868 415.749 67.463 406.803 76.559 C 400.382 83.1403 395.965 93.3586 396.478 105.229 C 397.052 117.074 402.26 129.679 413 139.621 C 413 139.621 413 139.621 413 139.621 L 412.994 139.623 Z" id="imagebot_4"/>
  <path stroke-width="0" stroke-opacity="0" fill-rule="evenodd" fill="#000000" d="M 126.006 133.333 C 126.204 133.518 126.403 133.704 126.603 133.887 C 126.803 134.072 127.004 134.255 127.206 134.437 C 127.407 134.62 127.61 134.802 127.814 134.983 C 128.018 135.164 128.222 135.344 128.428 135.524 C 128.634 135.703 128.84 135.882 129.048 136.06 C 129.255 136.238 129.464 136.415 129.673 136.592 C 129.882 136.768 130.093 136.944 130.304 137.119 C 130.515 137.294 130.727 137.468 130.94 137.641 C 131.154 137.814 131.367 137.987 131.582 138.159 C 131.797 138.33 132.013 138.501 132.23 138.672 C 132.446 138.842 132.664 139.011 132.882 139.18 C 133.101 139.349 133.32 139.516 133.54 139.683 C 133.761 139.85 133.982 140.016 134.204 140.182 C 134.426 140.347 134.649 140.512 134.873 140.676 C 135.097 140.84 135.321 141.003 135.547 141.165 C 135.772 141.327 135.999 141.488 136.226 141.649 C 136.453 141.809 136.681 141.969 136.91 142.128 C 137.139 142.286 137.369 142.445 137.6 142.602 C 137.831 142.759 138.062 142.916 138.295 143.071 C 138.527 143.227 138.76 143.381 138.994 143.535 C 139.228 143.689 139.463 143.842 139.699 143.994 C 139.935 144.146 140.171 144.298 140.409 144.448 C 140.646 144.598 140.884 144.748 141.124 144.897 C 141.363 145.046 141.602 145.193 141.843 145.341 C 142.084 145.488 142.325 145.634 142.568 145.779 C 142.81 145.924 143.053 146.069 143.297 146.212 C 143.541 146.356 143.786 146.498 144.031 146.64 C 144.277 146.782 144.523 146.923 144.77 147.063 C 145.017 147.203 145.265 147.342 145.514 147.481 C 145.762 147.619 146.012 147.756 146.262 147.892 C 146.512 148.029 146.763 148.165 147.015 148.299 C 147.266 148.434 147.519 148.567 147.772 148.701 C 160.374 139.369 169.851 126.868 175.618 111.977 C 176.812 108.79 177.805 105.577 178.598 102.347 C 182.49 86.4906 181.564 70.2246 175.902 54.6627 C 174.902 52.1878 173.82 49.7887 172.659 47.4673 C 164.231 30.6203 151.637 17.8663 136.198 9.9513 C 131.598 7.5931 126.747 5.6644 121.677 4.1848 C 109.972 0.9748 98.414 0 87.3571 1.1105 C 75.7921 2.272 64.774 5.7148 54.704 11.2675 C 51.1461 13.2651 47.7661 15.4226 44.5681 17.7264 C 32.532 26.3969 23.075 37.1404 16.46 49.2404 C 15.328 51.3102 14.28 53.4198 13.316 55.5654 C 8.73303 65.8234 5.797 76.2064 4.396 86.4506 C 3.36804 93.9646 3.16504 101.405 3.74402 108.665 C 4.133 113.332 4.75403 117.912 5.59399 122.395 C 7.73804 133.833 11.307 144.638 16.097 154.634 C 20.888 164.63 26.898 173.818 33.924 182.02 C 34.595 182.803 35.276 183.578 35.966 184.343 C 42.415 191.498 49.329 197.887 56.582 203.525 C 64.6 209.759 73.035 215.075 81.718 219.497 C 86.7841 222.077 91.935 224.352 97.1371 226.327 C 100.829 227.739 104.519 229.031 108.203 230.211 C 117.046 233.044 125.849 235.23 134.546 236.866 C 143.242 238.502 151.833 239.588 160.25 240.225 C 160.756 240.265 161.262 240.3 161.767 240.335 C 169.616 240.913 177.307 241.213 184.835 241.319 C 192.845 241.432 200.672 241.322 208.313 241.096 C 212.587 240.969 216.804 240.804 220.962 240.619 C 224.225 240.483 227.488 240.339 230.751 240.188 C 238.155 239.846 245.557 239.466 252.955 239.049 C 260.353 238.631 267.748 238.176 275.14 237.683 C 282.531 237.19 289.919 236.66 297.303 236.092 C 304.686 235.523 312.066 234.918 319.441 234.275 C 326.816 233.632 334.187 232.951 341.553 232.233 S 356.28 230.76 363.636 229.967 C 370.992 229.174 378.343 228.344 385.688 227.477 C 393.033 226.61 400.373 225.705 407.707 224.763 C 415.041 223.821 422.369 222.842 429.691 221.826 C 437.013 220.81 444.328 219.756 451.637 218.666 C 458.946 217.575 466.248 216.448 473.543 215.283 C 480.838 214.118 488.126 212.917 495.407 211.678 C 502.688 210.44 509.961 209.164 517.227 207.852 C 524.493 206.539 531.751 205.19 539 203.804 C 531.661 204.945 524.317 206.048 516.967 207.114 C 509.617 208.179 502.262 209.207 494.902 210.197 C 487.542 211.187 480.177 212.139 472.808 213.053 C 465.439 213.968 458.065 214.844 450.687 215.683 C 443.309 216.522 435.927 217.323 428.542 218.086 C 421.156 218.849 413.767 219.574 406.374 220.261 C 398.981 220.948 391.585 221.598 384.186 222.209 S 369.385 223.394 361.981 223.93 C 354.576 224.465 347.169 224.963 339.76 225.422 C 332.351 225.882 324.939 226.304 317.526 226.687 C 310.113 227.071 302.698 227.417 295.281 227.724 C 287.864 228.032 280.447 228.301 273.028 228.533 C 265.609 228.764 258.189 228.958 250.769 229.113 C 243.348 229.269 235.927 229.386 228.506 229.465 C 290.061 214.416 350.366 196.745 409.216 176.625 C 347.634 194.691 284.726 210.073 220.736 222.613 C 208.497 225.027 195.926 227.294 182.824 228.928 C 176.324 228.593 169.747 228.103 163.099 227.4 C 161.709 227.258 160.317 227.103 158.922 226.937 C 150.826 225.968 142.642 224.579 134.447 222.678 C 126.251 220.777 118.045 218.362 109.905 215.343 C 128.846 218.486 147 218.383 164.227 216.523 C 183.869 214.431 202.353 210.404 220.537 206.102 C 303.255 186.558 383.757 162.226 461.537 133.527 C 383.495 160.132 302.967 182.338 220.467 199.767 C 202.342 203.595 184.11 207.167 165.03 208.837 C 146.098 210.509 126.272 210.096 105.86 205.52 C 91.614 202.34 77.2961 196.855 63.7401 188.52 C 58.4601 183.962 53.462 178.959 48.821 173.509 C 47.337 171.767 45.906 169.977 44.53 168.143 C 38.808 160.518 34.032 152.118 30.389 143.143 C 37.912 153.025 46.799 161.047 56.2841 167.219 L 56.2841 167.219 C 75.0941 179.413 95.217 184.611 114.193 185.65 C 125.203 186.252 135.862 185.467 146.237 183.81 C 136.075 184.436 125.796 184.228 115.414 182.739 C 97.531 180.17 79.182 173.837 62.86 161.678 C 46.496 149.469 32.76 131.172 26.799 107.569 C 24.959 100.204 24.058 92.3496 24.339 84.1722 C 25.795 77.4334 28.051 70.7382 31.1501 64.2252 C 32.782 60.8051 34.678 57.5077 36.823 54.361 C 43.093 45.163 51.496 37.252 61.687 31.324 C 50.459 43.549 45.289 57.632 44.453 70.682 C 43.6031 84.499 47.2841 96.6246 52.925 106.324 C 57.286 113.833 62.8531 119.893 68.972 124.623 C 64.144 119.404 60.002 113.234 57.0641 106.127 C 53.256 96.9506 51.286 86.195 52.998 74.829 C 54.7191 63.451 60.287 51.583 70.731 42.207 C 81.298 32.8165 96.432 26.935 114.012 28.591 C 120.105 29.2494 126.168 30.8729 131.957 33.5039 C 141.781 40.4304 149.511 50.3239 154.11 62.4459 C 154.391 63.2472 154.653 64.0517 154.897 64.8588 C 154.245 64.1772 153.58 63.5163 152.904 62.8767 C 136.805 48.1787 117.506 48.0397 105.839 54.6319 C 98.427 58.7737 93.837 65.4429 92.14 72.1769 C 94.415 68.2299 98.263 64.6083 103.287 62.763 C 111.095 59.6999 123.252 61.176 132.198 70.272 C 138.619 76.8534 143.036 87.0716 142.523 98.9416 C 141.949 110.787 136.741 123.392 126.001 133.334 C 126.001 133.334 126.001 133.334 126.001 133.334 L 126.006 133.333 Z" id="imagebot_3"/>
  <title>imagebot_2</title>
 </g>
 <metadata>image/svg+xmlOpenclipartbrownish swirl2010-08-05T17:55:02basic swirl one three in a sethttp://openclipart.org/detail/77719/brownish-swirl-by-shokuninshokuninclip artclipartcurvesflourishflourishesswirls</metadata>
</svg>