<svg width="539" height="248" xmlns="http://www.w3.org/2000/svg">

 <g fill-rule="evenodd" id="imagebot_2">
  <path transform="translate(0.000801086 0.6646) matrix(1 0 0 1 -73.387 -14.382)" fill-rule="evenodd" fill="#d9bb7a" d="M 486.38 153.34 C 486.182 153.525 485.983 153.711 485.783 153.894 C 485.583 154.079 485.382 154.262 485.18 154.444 C 484.979 154.627 484.776 154.809 484.572 154.99 C 484.368 155.171 484.164 155.351 483.958 155.531 C 483.752 155.71 483.546 155.889 483.338 156.067 C 483.131 156.245 482.922 156.422 482.713 156.599 C 482.504 156.775 482.293 156.951 482.082 157.126 C 481.871 157.301 481.659 157.475 481.446 157.648 C 481.232 157.821 481.019 157.994 480.804 158.166 C 480.589 158.337 480.373 158.508 480.156 158.679 C 479.94 158.849 479.722 159.018 479.504 159.187 C 479.285 159.356 479.066 159.523 478.846 159.69 C 478.625 159.857 478.404 160.023 478.182 160.189 C 477.96 160.354 477.737 160.519 477.513 160.683 C 477.289 160.847 477.065 161.01 476.839 161.172 C 476.614 161.334 476.387 161.495 476.16 161.656 C 475.933 161.816 475.705 161.976 475.476 162.135 C 475.247 162.293 475.017 162.452 474.786 162.609 C 474.555 162.766 474.324 162.923 474.091 163.078 C 473.859 163.234 473.626 163.388 473.392 163.542 C 473.158 163.696 472.923 163.849 472.687 164.001 C 472.451 164.153 472.215 164.305 471.977 164.455 C 471.74 164.605 471.501 164.755 471.262 164.904 C 471.023 165.053 470.784 165.2 470.543 165.348 C 470.302 165.495 470.061 165.641 469.818 165.786 C 469.576 165.931 469.333 166.076 469.089 166.219 C 468.845 166.363 468.6 166.505 468.355 166.647 C 468.109 166.789 467.863 166.93 467.616 167.07 C 467.369 167.21 467.121 167.349 466.872 167.488 C 466.624 167.626 466.374 167.763 466.124 167.9 C 465.874 168.036 465.623 168.172 465.371 168.306 C 465.12 168.441 464.867 168.574 464.614 168.708 C 452.012 159.376 442.535 146.875 436.768 131.984 C 435.574 128.797 434.581 125.584 433.788 122.354 C 429.896 106.498 430.822 90.232 436.484 74.6701 C 437.484 72.1952 438.566 69.7961 439.727 67.4746 C 448.155 50.6277 460.749 37.8736 476.188 29.9587 C 480.788 27.6005 485.639 25.6717 490.709 24.1922 C 502.414 20.9821 513.972 20.0074 525.029 21.1178 C 536.594 22.2794 547.612 25.7222 557.682 31.2749 C 561.24 33.2724 564.62 35.43 567.818 37.7337 C 579.854 46.4043 589.311 57.1478 595.926 69.2477 C 597.058 71.3176 598.106 73.4271 599.07 75.5727 C 603.653 85.8307 606.589 96.2138 607.99 106.458 C 609.018 113.972 609.221 121.411 608.642 128.672 C 608.253 133.339 607.632 137.919 606.792 142.402 C 604.648 153.84 601.079 164.645 596.289 174.641 C 591.499 184.637 585.488 193.825 578.462 202.027 C 577.791 202.81 577.11 203.585 576.42 204.35 C 569.971 211.505 563.057 217.894 555.804 223.532 C 547.786 229.766 539.351 235.082 530.668 239.504 C 525.602 242.084 520.451 244.359 515.249 246.334 C 511.557 247.746 507.867 249.038 504.183 250.218 C 495.34 253.051 486.537 255.237 477.84 256.873 C 469.144 258.509 460.553 259.595 452.136 260.232 C 451.63 260.272 451.124 260.307 450.619 260.342 C 442.77 260.92 435.079 261.22 427.551 261.326 C 419.541 261.439 411.714 261.329 404.073 261.103 C 399.799 260.976 395.582 260.811 391.424 260.626 C 388.161 260.49 384.898 260.346 381.635 260.195 C 374.231 259.853 366.829 259.473 359.431 259.056 C 352.033 258.638 344.638 258.183 337.246 257.69 C 329.855 257.197 322.467 256.667 315.083 256.099 C 307.7 255.53 300.32 254.925 292.945 254.282 C 285.57 253.639 278.199 252.958 270.833 252.24 S 256.106 250.767 248.75 249.974 C 241.394 249.181 234.043 248.351 226.698 247.484 C 219.353 246.617 212.013 245.712 204.679 244.77 C 197.345 243.828 190.017 242.849 182.695 241.833 C 175.373 240.817 168.058 239.763 160.749 238.673 C 153.44 237.582 146.138 236.455 138.843 235.29 C 131.548 234.125 124.26 232.924 116.979 231.685 C 109.698 230.447 102.425 229.171 95.1592 227.859 C 87.8935 226.546 80.6352 225.197 73.3862 223.811 C 80.7251 224.952 88.0692 226.055 95.4192 227.121 C 102.769 228.186 110.124 229.214 117.484 230.204 C 124.844 231.194 132.209 232.146 139.578 233.06 C 146.947 233.975 154.321 234.851 161.699 235.69 C 169.077 236.529 176.459 237.33 183.844 238.093 C 191.23 238.856 198.619 239.581 206.012 240.268 C 213.405 240.955 220.801 241.605 228.2 242.216 S 243.001 243.401 250.405 243.937 C 257.81 244.472 265.217 244.97 272.626 245.429 C 280.035 245.889 287.447 246.311 294.86 246.694 C 302.273 247.078 309.688 247.424 317.105 247.731 C 324.522 248.039 331.939 248.308 339.358 248.54 C 346.777 248.771 354.197 248.965 361.617 249.12 C 369.038 249.276 376.459 249.393 383.88 249.472 C 322.325 234.423 262.02 216.752 203.17 196.632 C 264.752 214.698 327.66 230.08 391.65 242.62 C 403.889 245.034 416.46 247.301 429.562 248.935 C 436.062 248.6 442.639 248.11 449.287 247.407 C 450.677 247.265 452.069 247.11 453.464 246.944 C 461.56 245.975 469.744 244.586 477.939 242.685 C 486.135 240.784 494.341 238.369 502.481 235.35 C 483.54 238.493 465.386 238.39 448.159 236.53 C 428.517 234.438 410.033 230.411 391.849 226.109 C 309.131 206.565 228.629 182.233 150.849 153.534 C 228.891 180.139 309.419 202.345 391.919 219.774 C 410.044 223.602 428.276 227.174 447.356 228.844 C 466.288 230.516 486.114 230.103 506.526 225.527 C 520.772 222.347 535.09 216.862 548.646 208.527 C 553.926 203.969 558.924 198.966 563.565 193.516 C 565.049 191.774 566.48 189.984 567.856 188.15 C 573.578 180.525 578.354 172.125 581.997 163.15 C 574.474 173.032 565.587 181.054 556.102 187.226 L 556.102 187.226 C 537.292 199.42 517.169 204.618 498.193 205.657 C 487.183 206.259 476.524 205.474 466.149 203.817 C 476.311 204.443 486.59 204.235 496.972 202.746 C 514.855 200.177 533.204 193.844 549.526 181.685 C 565.89 169.476 579.626 151.179 585.587 127.576 C 587.427 120.211 588.328 112.357 588.047 104.18 C 586.591 97.4408 584.335 90.7456 581.236 84.2326 C 579.604 80.8125 577.708 77.5151 575.563 74.3684 C 569.293 65.1704 560.89 57.2594 550.699 51.3313 C 561.927 63.5564 567.097 77.6394 567.933 90.6894 C 568.783 104.506 565.102 116.632 559.461 126.331 C 555.1 133.84 549.533 139.9 543.414 144.63 C 548.242 139.411 552.384 133.241 555.322 126.134 C 559.13 116.958 561.1 106.202 559.388 94.8363 C 557.667 83.4584 552.099 71.5903 541.655 62.2144 C 531.095 52.8204 515.955 46.9384 498.375 48.5953 C 492.282 49.2538 486.219 50.8773 480.43 53.5083 C 470.606 60.4347 462.876 70.3282 458.277 82.4502 C 457.997 83.2516 457.734 84.0561 457.49 84.8632 C 458.142 84.1816 458.807 83.5207 459.483 82.8811 C 475.582 68.1831 494.881 68.0441 506.548 74.6363 C 513.96 78.7781 518.55 85.4473 520.247 92.1813 C 517.972 88.2343 514.124 84.6126 509.1 82.7673 C 501.292 79.7042 489.135 81.1804 480.189 90.2764 C 473.768 96.8577 469.351 107.076 469.864 118.946 C 470.438 130.791 475.646 143.396 486.386 153.338 C 486.386 153.338 486.386 153.338 486.386 153.338 L 486.38 153.34 Z" id="imagebot_4"/>
  <path stroke-width="0" stroke-opacity="0" fill-rule="evenodd" fill="#000000" d="M 416.419 133.333 C 416.221 133.518 416.022 133.704 415.822 133.887 C 415.622 134.072 415.421 134.255 415.219 134.437 C 415.018 134.62 414.815 134.802 414.611 134.983 C 414.407 135.164 414.203 135.344 413.997 135.524 C 413.791 135.703 413.585 135.882 413.377 136.06 C 413.17 136.238 412.961 136.415 412.752 136.592 C 412.543 136.768 412.332 136.944 412.121 137.119 C 411.91 137.294 411.698 137.468 411.485 137.641 C 411.271 137.814 411.058 137.987 410.843 138.159 C 410.628 138.33 410.412 138.501 410.195 138.672 C 409.979 138.842 409.761 139.011 409.543 139.18 C 409.324 139.349 409.105 139.516 408.885 139.683 C 408.664 139.85 408.443 140.016 408.221 140.182 C 407.999 140.347 407.776 140.512 407.552 140.676 C 407.328 140.84 407.104 141.003 406.878 141.165 C 406.653 141.327 406.426 141.488 406.199 141.649 C 405.972 141.809 405.744 141.969 405.515 142.128 C 405.286 142.286 405.056 142.445 404.825 142.602 C 404.594 142.759 404.363 142.916 404.13 143.071 C 403.898 143.227 403.665 143.381 403.431 143.535 C 403.197 143.689 402.962 143.842 402.726 143.994 C 402.49 144.146 402.254 144.298 402.016 144.448 C 401.779 144.598 401.541 144.748 401.301 144.897 C 401.062 145.046 400.823 145.193 400.582 145.341 C 400.341 145.488 400.1 145.634 399.857 145.779 C 399.615 145.924 399.372 146.069 399.128 146.212 C 398.884 146.356 398.639 146.498 398.394 146.64 C 398.148 146.782 397.902 146.923 397.655 147.063 C 397.408 147.203 397.16 147.342 396.911 147.481 C 396.663 147.619 396.413 147.756 396.163 147.892 C 395.913 148.029 395.662 148.165 395.41 148.299 C 395.159 148.434 394.906 148.567 394.653 148.701 C 382.051 139.369 372.574 126.868 366.807 111.977 C 365.613 108.79 364.62 105.577 363.827 102.347 C 359.935 86.4906 360.861 70.2246 366.523 54.6627 C 367.523 52.1878 368.605 49.7887 369.766 47.4673 C 378.194 30.6203 390.788 17.8663 406.227 9.9513 C 410.827 7.5931 415.678 5.6644 420.748 4.1848 C 432.453 0.9748 444.011 0 455.068 1.1105 C 466.633 2.272 477.651 5.7148 487.721 11.2675 C 491.279 13.2651 494.659 15.4226 497.857 17.7264 C 509.893 26.3969 519.35 37.1404 525.965 49.2404 C 527.097 51.3102 528.145 53.4198 529.109 55.5654 C 533.692 65.8234 536.628 76.2064 538.029 86.4506 C 539.057 93.9646 539.26 101.405 538.681 108.665 C 538.292 113.332 537.671 117.912 536.831 122.395 C 534.687 133.833 531.118 144.638 526.328 154.634 C 521.537 164.63 515.527 173.818 508.501 182.02 C 507.83 182.803 507.149 183.578 506.459 184.343 C 500.01 191.498 493.096 197.887 485.843 203.525 C 477.825 209.759 469.39 215.075 460.707 219.497 C 455.641 222.077 450.49 224.352 445.288 226.327 C 441.596 227.739 437.906 229.031 434.222 230.211 C 425.379 233.044 416.576 235.23 407.879 236.866 C 399.183 238.502 390.592 239.588 382.175 240.225 C 381.669 240.265 381.163 240.3 380.658 240.335 C 372.809 240.913 365.118 241.213 357.59 241.319 C 349.58 241.432 341.753 241.322 334.112 241.096 C 329.838 240.969 325.621 240.804 321.463 240.619 C 318.2 240.483 314.937 240.339 311.674 240.188 C 304.27 239.846 296.868 239.466 289.47 239.049 C 282.072 238.631 274.677 238.176 267.285 237.683 C 259.894 237.19 252.506 236.66 245.122 236.092 C 237.739 235.523 230.359 234.918 222.984 234.275 C 215.609 233.632 208.238 232.951 200.872 232.233 S 186.145 230.76 178.789 229.967 C 171.433 229.174 164.082 228.344 156.737 227.477 C 149.392 226.61 142.052 225.705 134.718 224.763 C 127.384 223.821 120.056 222.842 112.734 221.826 C 105.412 220.81 98.0965 219.756 90.7874 218.666 C 83.4784 217.575 76.1764 216.448 68.8814 215.283 C 61.5864 214.118 54.2984 212.917 47.0174 211.678 C 39.7364 210.44 32.4634 209.164 25.1976 207.852 C 17.9319 206.539 10.6736 205.19 3.42465 203.804 C 10.7635 204.945 18.1076 206.048 25.4576 207.114 C 32.8074 208.179 40.1624 209.207 47.5224 210.197 C 54.8824 211.187 62.2474 212.139 69.6164 213.053 C 76.9855 213.968 84.3595 214.844 91.7374 215.683 C 99.1154 216.522 106.498 217.323 113.883 218.086 C 121.269 218.849 128.658 219.574 136.051 220.261 C 143.444 220.948 150.84 221.598 158.239 222.209 S 173.04 223.394 180.444 223.93 C 187.849 224.465 195.256 224.963 202.665 225.422 C 210.074 225.882 217.486 226.304 224.899 226.687 C 232.312 227.071 239.727 227.417 247.144 227.724 C 254.561 228.032 261.978 228.301 269.397 228.533 C 276.816 228.764 284.236 228.958 291.656 229.113 C 299.077 229.269 306.498 229.386 313.919 229.465 C 252.364 214.416 192.059 196.745 133.209 176.625 C 194.791 194.691 257.699 210.073 321.689 222.613 C 333.928 225.027 346.499 227.294 359.601 228.928 C 366.101 228.593 372.678 228.103 379.326 227.4 C 380.716 227.258 382.108 227.103 383.503 226.937 C 391.599 225.968 399.783 224.579 407.978 222.678 C 416.174 220.777 424.38 218.362 432.52 215.343 C 413.579 218.486 395.425 218.383 378.198 216.523 C 358.556 214.431 340.072 210.404 321.888 206.102 C 239.17 186.558 158.668 162.226 80.8875 133.527 C 158.93 160.132 239.458 182.338 321.958 199.767 C 340.083 203.595 358.315 207.167 377.395 208.837 C 396.327 210.509 416.153 210.096 436.565 205.52 C 450.811 202.34 465.129 196.855 478.685 188.52 C 483.965 183.962 488.963 178.959 493.604 173.509 C 495.088 171.767 496.519 169.977 497.895 168.143 C 503.617 160.518 508.393 152.118 512.036 143.143 C 504.513 153.025 495.626 161.047 486.141 167.219 L 486.141 167.219 C 467.331 179.413 447.208 184.611 428.232 185.65 C 417.222 186.252 406.563 185.467 396.188 183.81 C 406.35 184.436 416.629 184.228 427.011 182.739 C 444.894 180.17 463.243 173.837 479.565 161.678 C 495.929 149.469 509.665 131.172 515.626 107.569 C 517.466 100.204 518.367 92.3496 518.086 84.1722 C 516.63 77.4334 514.374 70.7382 511.275 64.2252 C 509.643 60.8051 507.747 57.5077 505.602 54.361 C 499.332 45.163 490.929 37.252 480.738 31.324 C 491.966 43.549 497.136 57.632 497.972 70.682 C 498.822 84.499 495.141 96.6246 489.5 106.324 C 485.139 113.833 479.572 119.893 473.453 124.623 C 478.281 119.404 482.423 113.234 485.361 106.127 C 489.169 96.9506 491.139 86.195 489.427 74.829 C 487.706 63.451 482.138 51.583 471.694 42.207 C 461.127 32.8165 445.993 26.935 428.413 28.591 C 422.32 29.2494 416.257 30.8729 410.468 33.5039 C 400.644 40.4304 392.914 50.3239 388.315 62.4459 C 388.034 63.2472 387.772 64.0517 387.528 64.8588 C 388.18 64.1772 388.845 63.5163 389.521 62.8767 C 405.62 48.1787 424.919 48.0397 436.586 54.6319 C 443.998 58.7737 448.588 65.4429 450.285 72.1769 C 448.01 68.2299 444.162 64.6083 439.138 62.763 C 431.33 59.6999 419.173 61.176 410.227 70.272 C 403.806 76.8534 399.389 87.0716 399.902 98.9416 C 400.476 110.787 405.684 123.392 416.424 133.334 C 416.424 133.334 416.424 133.334 416.424 133.334 L 416.419 133.333 Z" id="imagebot_3"/>
  <title>imagebot_2</title>
 </g>
 <metadata>image/svg+xmlOpenclipartbrownish swirl2010-08-05T17:55:02basic swirl one three in a sethttp://openclipart.org/detail/77719/brownish-swirl-by-shokuninshokuninclip artclipartcurvesflourishflourishesswirls</metadata>
</svg>